<?xml version="1.0" encoding="UTF-8"?>
<!DOCTYPE svg PUBLIC "-//W3C//DTD SVG 1.1//EN" "http://www.w3.org/Graphics/SVG/1.1/DTD/svg11.dtd">
<!-- Creator: CorelDRAW X8 -->
<svg xmlns="http://www.w3.org/2000/svg" xml:space="preserve" width="237px" height="174px" version="1.1" style="shape-rendering:geometricPrecision; text-rendering:geometricPrecision; image-rendering:optimizeQuality; fill-rule:evenodd; clip-rule:evenodd"
viewBox="0 0 237 174"
 xmlns:xlink="http://www.w3.org/1999/xlink">
 <defs>
  <style type="text/css">
   <![CDATA[
    .fil0 {fill:#AC4545}
   ]]>
  </style>
 </defs>
 <g id="Capa_x0020_1">
  <metadata id="CorelCorpID_0Corel-Layer"/>
  <path class="fil0" d="M26 24c-5,6 0,24 19,33 2,1 5,1 7,2 16,8 19,5 27,18 10,16 -19,34 -29,42 -15,10 -46,19 -49,29 0,0 -1,3 -1,4 -1,8 1,15 4,22 30,-6 76,-5 109,-4 5,-35 -6,-24 24,-43 15,-10 50,-25 58,0 3,-3 6,-10 8,-14 2,-3 2,-5 4,-8 4,-8 6,-14 13,-22 4,-5 9,-9 9,-14 -14,-6 -11,-1 -20,-2 -2,-14 13,-11 23,-32 1,-2 2,-4 3,-7 1,-3 1,-4 2,-8l-28 4c-10,3 -28,12 -33,20 -1,0 -3,5 -4,5 -3,4 -21,2 -25,-2 -8,-10 -5,-6 -20,-11 -11,-4 -8,-4 -23,-7 -9,-2 -16,-3 -24,-8 -5,-3 -6,-4 -7,-9 -1,-2 -1,-3 -2,-5 0,-2 0,-2 0,-3 -1,-2 0,0 -1,-2l0 -1c0,-1 0,-1 0,-1 -4,0 -6,3 -7,9 -2,14 7,24 20,29 10,3 24,7 30,15 5,6 4,13 0,13 -2,1 -17,-9 -20,-11 -20,-10 -25,-2 -49,-15 -16,-9 -11,-14 -18,-16z"/>
 </g>
</svg>
