<?xml version="1.0" encoding="UTF-8"?>
<!DOCTYPE svg PUBLIC "-//W3C//DTD SVG 1.1//EN" "http://www.w3.org/Graphics/SVG/1.1/DTD/svg11.dtd">
<!-- Creator: CorelDRAW X8 -->
<svg xmlns="http://www.w3.org/2000/svg" xml:space="preserve" width="131px" height="121px" version="1.1" style="shape-rendering:geometricPrecision; text-rendering:geometricPrecision; image-rendering:optimizeQuality; fill-rule:evenodd; clip-rule:evenodd"
viewBox="0 0 131 121"
 xmlns:xlink="http://www.w3.org/1999/xlink">
 <defs>
  <style type="text/css">
   <![CDATA[
    .fil0 {fill:#AC4545}
   ]]>
  </style>
 </defs>
 <g id="Capa_x0020_1">
  <metadata id="CorelCorpID_0Corel-Layer"/>
  <path class="fil0" d="M0 121l46 0c8,-14 16,-22 31,-21 1,-1 1,-2 2,-4 0,0 0,0 0,0 15,-31 33,-21 52,-33 -29,-21 -10,-52 -8,-62 -33,-2 -26,-2 -58,2 -5,0 -8,-1 -14,1 -7,1 -18,2 -25,5 -8,2 -4,2 -6,10 -8,28 -14,65 -19,95 -1,3 -1,3 -1,7z"/>
 </g>
</svg>
