<?xml version="1.0" encoding="UTF-8"?>
<!DOCTYPE svg PUBLIC "-//W3C//DTD SVG 1.1//EN" "http://www.w3.org/Graphics/SVG/1.1/DTD/svg11.dtd">
<!-- Creator: CorelDRAW X8 -->
<svg xmlns="http://www.w3.org/2000/svg" xml:space="preserve" width="67px" height="336px" version="1.1" style="shape-rendering:geometricPrecision; text-rendering:geometricPrecision; image-rendering:optimizeQuality; fill-rule:evenodd; clip-rule:evenodd"
viewBox="0 0 67 336"
 xmlns:xlink="http://www.w3.org/1999/xlink">
 <defs>
  <style type="text/css">
   <![CDATA[
    .fil0 {fill:#AC4545}
   ]]>
  </style>
 </defs>
 <g id="Capa_x0020_1">
  <metadata id="CorelCorpID_0Corel-Layer"/>
  <path class="fil0" d="M53 168l1 25c0,2 -1,4 0,8l1 14c0,7 2,59 0,66 -2,5 -4,11 -7,17 -4,12 -5,29 3,38 6,-9 2,-1 7,-5 4,-5 -1,-1 3,-3 1,-17 11,-16 3,-55 -4,-17 -1,-49 -1,-68 0,-21 -4,-50 -4,-75l0 -19c0,-4 -1,-6 -1,-10 1,-7 1,-14 1,-22 1,-7 2,-11 2,-20 0,-10 0,-12 -2,-21 -3,-10 -15,-30 -22,-34 -6,-2 -23,-4 -29,-4 -10,22 -13,46 10,60l16 13c4,4 9,9 12,16 7,14 5,41 6,52 0,5 2,6 2,12 0,6 -1,9 -1,15z"/>
 </g>
</svg>
