<?xml version="1.0" encoding="UTF-8"?>
<!DOCTYPE svg PUBLIC "-//W3C//DTD SVG 1.1//EN" "http://www.w3.org/Graphics/SVG/1.1/DTD/svg11.dtd">
<!-- Creator: CorelDRAW X8 -->
<svg xmlns="http://www.w3.org/2000/svg" xml:space="preserve" width="160px" height="204px" version="1.1" style="shape-rendering:geometricPrecision; text-rendering:geometricPrecision; image-rendering:optimizeQuality; fill-rule:evenodd; clip-rule:evenodd"
viewBox="0 0 160 204"
 xmlns:xlink="http://www.w3.org/1999/xlink">
 <defs>
  <style type="text/css">
   <![CDATA[
    .fil0 {fill:#AC4545}
   ]]>
  </style>
 </defs>
 <g id="Capa_x0020_1">
  <metadata id="CorelCorpID_0Corel-Layer"/>
  <path class="fil0" d="M0 9c0,16 1,30 1,46 0,14 3,77 6,90 1,7 2,14 3,20 4,33 15,11 42,22 9,4 15,12 22,17 5,-1 8,-3 12,-5 15,-6 23,-14 40,-8 5,-5 8,-24 10,-32 2,-10 12,-77 12,-86 0,-6 1,-4 2,-8 2,-8 6,-48 8,-52 1,-4 1,-8 2,-13l-160 9z"/>
 </g>
</svg>
