<?xml version="1.0" encoding="UTF-8"?>
<!DOCTYPE svg PUBLIC "-//W3C//DTD SVG 1.1//EN" "http://www.w3.org/Graphics/SVG/1.1/DTD/svg11.dtd">
<!-- Creator: CorelDRAW X8 -->
<svg xmlns="http://www.w3.org/2000/svg" xml:space="preserve" width="159px" height="116px" version="1.1" style="shape-rendering:geometricPrecision; text-rendering:geometricPrecision; image-rendering:optimizeQuality; fill-rule:evenodd; clip-rule:evenodd"
viewBox="0 0 159 116"
 xmlns:xlink="http://www.w3.org/1999/xlink">
 <defs>
  <style type="text/css">
   <![CDATA[
    .fil0 {fill:#AC4545}
   ]]>
  </style>
 </defs>
 <g id="Capa_x0020_1">
  <metadata id="CorelCorpID_0Corel-Layer"/>
  <path class="fil0" d="M0 31c2,3 5,5 8,8l29 34c3,3 5,5 7,9l4 5c0,0 1,1 1,1l10 12c6,6 13,8 19,12 5,4 5,6 12,3 20,-7 17,-4 40,-8 10,-1 19,-2 29,-3 -4,-29 -5,-40 -5,-70 -27,-15 -21,-34 -47,-34 -26,0 -91,7 -107,31z"/>
 </g>
</svg>
