<?xml version="1.0" encoding="UTF-8"?>
<!DOCTYPE svg PUBLIC "-//W3C//DTD SVG 1.1//EN" "http://www.w3.org/Graphics/SVG/1.1/DTD/svg11.dtd">
<!-- Creator: CorelDRAW X8 -->
<svg xmlns="http://www.w3.org/2000/svg" xml:space="preserve" width="144px" height="210px" version="1.1" style="shape-rendering:geometricPrecision; text-rendering:geometricPrecision; image-rendering:optimizeQuality; fill-rule:evenodd; clip-rule:evenodd"
viewBox="0 0 144 210"
 xmlns:xlink="http://www.w3.org/1999/xlink">
 <defs>
  <style type="text/css">
   <![CDATA[
    .fil0 {fill:#AC4545}
   ]]>
  </style>
 </defs>
 <g id="Capa_x0020_1">
  <metadata id="CorelCorpID_0Corel-Layer"/>
  <path class="fil0" d="M86 45c6,10 4,36 8,47l3 24c1,38 -4,28 -7,49 -2,8 -4,18 -3,26 13,4 23,4 36,1 5,-1 10,-1 13,-5 2,-4 1,-17 4,-27 2,-4 5,-5 4,-16 -3,-16 -4,-31 -6,-47 -1,-8 1,-14 -1,-23 -3,-28 2,-49 3,-74 -10,0 -19,1 -29,1 -10,0 -24,0 -35,0l-40 4c-7,1 -13,1 -20,2 -4,1 -12,4 -16,7 2,8 5,10 9,39 4,26 3,7 3,39 0,8 1,13 1,23l-1 26c0,11 3,4 0,24 -2,20 -12,29 -12,40l4 2c11,3 37,7 39,-7 2,-11 1,-13 10,-19 9,-5 3,-9 3,-21 0,-5 -1,-5 -2,-9 0,-2 1,-5 1,-8 0,-5 -1,-7 -1,-10 0,-3 1,-5 1,-9 0,-14 -2,-19 3,-37 2,-7 1,-11 4,-17 2,-7 5,-21 11,-26 1,-1 0,0 2,-1 2,-1 9,0 11,2z"/>
 </g>
</svg>
