<?xml version="1.0" encoding="UTF-8"?>
<!DOCTYPE svg PUBLIC "-//W3C//DTD SVG 1.1//EN" "http://www.w3.org/Graphics/SVG/1.1/DTD/svg11.dtd">
<!-- Creator: CorelDRAW X8 -->
<svg xmlns="http://www.w3.org/2000/svg" xml:space="preserve" width="162px" height="69px" version="1.1" style="shape-rendering:geometricPrecision; text-rendering:geometricPrecision; image-rendering:optimizeQuality; fill-rule:evenodd; clip-rule:evenodd"
viewBox="0 0 162 69"
 xmlns:xlink="http://www.w3.org/1999/xlink">
 <defs>
  <style type="text/css">
   <![CDATA[
    .fil0 {fill:#AC4545}
   ]]>
  </style>
 </defs>
 <g id="Capa_x0020_1">
  <metadata id="CorelCorpID_0Corel-Layer"/>
  <path class="fil0" d="M18 59c15,-1 28,1 42,4 7,1 11,1 18,4 0,0 0,0 1,0 0,0 0,1 0,1l1 0c1,0 1,0 1,1 0,0 0,0 1,0 2,0 0,0 3,-1 9,-3 12,-9 40,-16 14,-3 25,-4 37,3 1,-11 -1,-35 -5,-43 -4,0 -9,1 -13,2 -6,1 -24,2 -30,1 -9,-1 -20,4 -44,-1 -4,-1 -9,-2 -13,-4 -14,-7 -22,-16 -38,-5l-11 7c-6,4 -12,-2 -4,13 1,3 3,7 5,11 3,7 8,16 9,23z"/>
 </g>
</svg>
