<?xml version="1.0" encoding="UTF-8"?>
<!DOCTYPE svg PUBLIC "-//W3C//DTD SVG 1.1//EN" "http://www.w3.org/Graphics/SVG/1.1/DTD/svg11.dtd">
<!-- Creator: CorelDRAW X8 -->
<svg xmlns="http://www.w3.org/2000/svg" xml:space="preserve" width="145px" height="158px" version="1.1" style="shape-rendering:geometricPrecision; text-rendering:geometricPrecision; image-rendering:optimizeQuality; fill-rule:evenodd; clip-rule:evenodd"
viewBox="0 0 145 158"
 xmlns:xlink="http://www.w3.org/1999/xlink">
 <defs>
  <style type="text/css">
   <![CDATA[
    .fil0 {fill:#AC4545}
   ]]>
  </style>
 </defs>
 <g id="Capa_x0020_1">
  <metadata id="CorelCorpID_0Corel-Layer"/>
  <path class="fil0" d="M55 114c0,-5 1,-8 1,-13 0,-4 -2,-8 -2,-12 0,-4 -1,-10 0,-13 1,-12 -2,-22 -1,-26 0,-2 3,-10 3,-11 2,-6 1,-6 3,-10l2 -7c1,0 4,1 5,-1 0,1 7,6 9,10 10,18 14,31 21,48 2,6 1,9 1,16 1,7 3,5 2,14 -1,5 -1,11 -3,15 -2,6 -6,21 -4,28 0,0 0,0 0,0 0,1 1,1 1,1 2,1 0,0 2,1 9,4 28,5 31,2 4,-4 4,-18 4,-25 1,-7 5,-13 12,-16 0,-14 -1,-6 -1,-14 -2,-15 -5,-29 -3,-43 1,-7 1,-7 1,-13 -2,-17 6,-34 6,-40 -6,-5 -2,-3 -13,-4 -8,-2 -22,0 -30,2 -6,2 -6,3 -12,5 -4,2 -6,3 -11,6 -6,2 -12,4 -13,6 -5,-3 -10,-6 -16,-6l-31 -5c-10,-1 -5,2 -15,-2 0,4 2,9 2,13l4 42c0,25 6,31 -4,54 -1,4 -2,7 -4,11 -5,18 0,16 9,18 4,1 9,1 13,1 15,-3 16,2 19,-13 4,-14 1,-14 12,-19z"/>
 </g>
</svg>
