<?xml version="1.0" encoding="UTF-8"?>
<!DOCTYPE svg PUBLIC "-//W3C//DTD SVG 1.1//EN" "http://www.w3.org/Graphics/SVG/1.1/DTD/svg11.dtd">
<!-- Creator: CorelDRAW X8 -->
<svg xmlns="http://www.w3.org/2000/svg" xml:space="preserve" width="88px" height="124px" version="1.1" style="shape-rendering:geometricPrecision; text-rendering:geometricPrecision; image-rendering:optimizeQuality; fill-rule:evenodd; clip-rule:evenodd"
viewBox="0 0 88 124"
 xmlns:xlink="http://www.w3.org/1999/xlink">
 <defs>
  <style type="text/css">
   <![CDATA[
    .fil0 {fill:#AC4545}
   ]]>
  </style>
 </defs>
 <g id="Capa_x0020_1">
  <metadata id="CorelCorpID_0Corel-Layer"/>
  <path class="fil0" d="M0 93c9,8 19,15 30,21 4,1 6,2 9,3 4,1 24,13 30,4 3,-4 0,-12 0,-14 2,-42 6,-45 18,-84 4,-12 -3,-18 -12,-22 -14,-5 -28,4 -39,11 -39,23 1,42 -22,68 -1,2 -3,4 -4,5 -3,3 -8,5 -10,8z"/>
 </g>
</svg>
