<?xml version="1.0" encoding="UTF-8"?>
<!DOCTYPE svg PUBLIC "-//W3C//DTD SVG 1.1//EN" "http://www.w3.org/Graphics/SVG/1.1/DTD/svg11.dtd">
<!-- Creator: CorelDRAW X8 -->
<svg xmlns="http://www.w3.org/2000/svg" xml:space="preserve" width="166px" height="213px" version="1.1" style="shape-rendering:geometricPrecision; text-rendering:geometricPrecision; image-rendering:optimizeQuality; fill-rule:evenodd; clip-rule:evenodd"
viewBox="0 0 166 213"
 xmlns:xlink="http://www.w3.org/1999/xlink">
 <defs>
  <style type="text/css">
   <![CDATA[
    .fil0 {fill:#AC4545}
   ]]>
  </style>
 </defs>
 <g id="Capa_x0020_1">
  <metadata id="CorelCorpID_0Corel-Layer"/>
  <path class="fil0" d="M46 213c19,-30 91,-34 120,-32 -4,-8 -3,-7 -6,-17 -7,-24 4,-17 -2,-28 -5,-8 -8,-16 -9,-26 -3,-26 -3,-18 -3,-44 0,-16 3,-30 3,-45 -2,-2 -10,-4 -13,-5 -5,-1 -9,-3 -13,-5 -8,-4 -22,-4 -33,-4 -11,0 -20,-7 -31,-7 -3,4 -6,5 -8,11 -2,4 -5,9 -8,13 -2,3 -1,2 -3,6 -1,2 -2,4 -3,7 -2,5 -4,9 -6,14l-10 29c-3,10 -6,20 -10,31 -3,10 -5,20 -8,31l-3 16c-1,25 24,34 41,50 2,3 2,3 5,5z"/>
 </g>
</svg>
